<?xml version="1.0" encoding="utf-8"?>
<!-- Generator: Adobe Illustrator 16.0.4, SVG Export Plug-In . SVG Version: 6.00 Build 0)  -->
<!DOCTYPE svg PUBLIC "-//W3C//DTD SVG 1.1//EN" "http://www.w3.org/Graphics/SVG/1.1/DTD/svg11.dtd">
<svg version="1.1" id="Capa_1" xmlns="http://www.w3.org/2000/svg" xmlns:xlink="http://www.w3.org/1999/xlink" x="0px" y="0px"
	 width="612px" height="792px" viewBox="0 0 612 792" enable-background="new 0 0 612 792" xml:space="preserve">
<path d="M152.402,306.352h310.781v251.016H152.402V306.352z M545.062,210.727v406.406c0,6.773-2.291,12.451-6.873,17.033
	s-10.262,6.873-17.033,6.873H90.844c-6.773,0-12.451-2.291-17.033-6.873s-6.873-10.26-6.873-17.033V210.726
	c0-6.773,2.291-12.451,6.873-17.033s10.26-6.873,17.033-6.873h59.766v-24.504c0-3.187,1.096-5.877,3.287-8.068
	s4.88-3.287,8.068-3.287h25.103c3.187,0,5.877,1.096,8.068,3.287c2.191,2.191,3.287,4.88,3.287,8.068v24.504h43.031v-22.113
	c0-3.585,1.395-6.773,4.184-9.562c2.789-2.789,5.976-4.184,9.562-4.184h20.32c3.585,0,6.773,1.395,9.562,4.184
	s4.184,5.976,4.184,9.562v22.113h35.859v-22.113c0-3.585,1.396-6.773,4.184-9.562c2.789-2.789,5.977-4.184,9.562-4.184h20.32
	c3.584,0,6.772,1.395,9.562,4.184s4.185,5.976,4.185,9.562v22.113h40.642v-24.503c0-3.187,1.096-5.877,3.287-8.068
	c2.189-2.191,4.879-3.287,8.066-3.287h25.104c3.186,0,5.877,1.096,8.067,3.287s3.286,4.88,3.286,8.068v24.504h59.767
	c6.771,0,12.451,2.291,17.033,6.873S545.062,203.954,545.062,210.727z M497.247,245.988c0-3.187-1.096-5.877-3.287-8.068
	s-4.88-3.287-8.068-3.287h-24.504v24.504c0,3.187-1.096,5.877-3.287,8.068c-2.189,2.191-4.879,3.287-8.066,3.287h-25.104
	c-3.186,0-5.877-1.096-8.066-3.287c-2.191-2.191-3.287-4.88-3.287-8.068v-24.504h-40.642v22.113c0,3.585-1.395,6.773-4.185,9.562
	s-5.976,4.184-9.562,4.184h-20.32c-3.584,0-6.773-1.395-9.562-4.184s-4.184-5.976-4.184-9.562v-22.113h-35.859v22.113
	c0,3.585-1.395,6.773-4.184,9.562s-5.976,4.184-9.562,4.184h-20.32c-3.585,0-6.773-1.395-9.562-4.184
	c-2.789-2.789-4.184-5.976-4.184-9.562v-22.113h-43.031v24.504c0,3.187-1.096,5.877-3.287,8.068
	c-2.191,2.191-4.88,3.287-8.068,3.287h-25.102c-3.187,0-5.877-1.096-8.068-3.287s-3.287-4.88-3.287-8.068v-24.504h-24.504
	c-3.187,0-5.877,1.096-8.068,3.287s-3.287,4.88-3.287,8.068v335.883c0,3.186,1.096,5.877,3.287,8.068
	c2.191,2.189,4.88,3.285,8.068,3.285h359.787c3.188,0,5.877-1.096,8.068-3.285c2.191-2.191,3.287-4.881,3.287-8.068V245.988z"/>
</svg>
