<?xml version="1.0" encoding="utf-8"?>
<!-- Generator: Adobe Illustrator 16.0.4, SVG Export Plug-In . SVG Version: 6.00 Build 0)  -->
<!DOCTYPE svg PUBLIC "-//W3C//DTD SVG 1.1//EN" "http://www.w3.org/Graphics/SVG/1.1/DTD/svg11.dtd">
<svg version="1.1" id="Capa_1" xmlns="http://www.w3.org/2000/svg" xmlns:xlink="http://www.w3.org/1999/xlink" x="0px" y="0px"
	 width="612px" height="792px" viewBox="0 0 612 792" enable-background="new 0 0 612 792" xml:space="preserve">
<path d="M306,230.15l159.576,164.355v63.354v194.237H362.18c0.4-3.586,0.6-7.172,0.6-10.758v-81.281
	c0-18.726-5.48-34.664-16.438-47.812c-10.957-13.15-24.404-19.723-40.342-19.723c-15.938,0-29.385,6.574-40.342,19.723
	c-10.957,13.147-16.436,29.085-16.436,47.812v81.281c0,3.586,0.2,7.172,0.598,10.758H146.426V469.811v-75.305L306,230.15z
	 M442.863,279.756v-37.652v-90.246c0-3.586-2.789-6.475-8.367-8.666s-12.252-3.287-20.021-3.287c-7.769,0-14.441,1.096-20.021,3.287
	s-8.367,5.08-8.367,8.666v69.926L306,139.904L54.984,401.08h45.422L306,195.486L511.594,401.08h45.422L442.863,279.756z"/>
</svg>
