<?xml version="1.0" encoding="utf-8"?>
<!-- Generator: Adobe Illustrator 16.0.4, SVG Export Plug-In . SVG Version: 6.00 Build 0)  -->
<!DOCTYPE svg PUBLIC "-//W3C//DTD SVG 1.1//EN" "http://www.w3.org/Graphics/SVG/1.1/DTD/svg11.dtd">
<svg version="1.1" id="Capa_1" xmlns="http://www.w3.org/2000/svg" xmlns:xlink="http://www.w3.org/1999/xlink" x="0px" y="0px"
	 width="612px" height="792px" viewBox="0 0 612 792" enable-background="new 0 0 612 792" xml:space="preserve">
<path d="M551.637,150.363c-11.555-11.555-25.699-17.332-42.434-17.332H102.797c-16.734,0-30.879,5.777-42.434,17.332
	c-11.555,11.555-17.332,25.699-17.332,42.434v406.406c0,16.732,5.777,30.879,17.332,42.434
	c11.555,11.557,25.699,17.332,42.434,17.332h406.406c16.734,0,30.879-5.775,42.434-17.332
	c11.557-11.555,17.332-25.699,17.332-42.434V192.797C568.969,176.063,563.193,161.918,551.637,150.363z M268.049,215.807
	c10.559-10.558,23.209-15.838,37.951-15.838s27.393,5.279,37.951,15.838c10.558,10.559,15.838,23.209,15.838,37.951
	c0,14.742-5.279,27.393-15.838,37.951c-10.561,10.558-23.209,15.838-37.951,15.838s-27.393-5.279-37.951-15.838
	c-10.558-10.559-15.838-23.209-15.838-37.951C252.211,239.016,257.49,226.365,268.049,215.807z M389.671,599.203H222.328v-35.859
	h47.812V360.141h-35.859v-23.906h95.625h11.953v227.109h47.812V599.203z"/>
</svg>
