<?xml version="1.0" encoding="utf-8"?>
<!-- Generator: Adobe Illustrator 16.0.4, SVG Export Plug-In . SVG Version: 6.00 Build 0)  -->
<!DOCTYPE svg PUBLIC "-//W3C//DTD SVG 1.1//EN" "http://www.w3.org/Graphics/SVG/1.1/DTD/svg11.dtd">
<svg version="1.1" id="Capa_1" xmlns="http://www.w3.org/2000/svg" xmlns:xlink="http://www.w3.org/1999/xlink" x="0px" y="0px"
	 width="612px" height="792px" viewBox="0 0 612 792" enable-background="new 0 0 612 792" xml:space="preserve">
<path d="M516.534,185.947c-32.672-32.672-72.217-49.008-118.635-49.008c-46.419,0-86.163,16.336-119.232,49.008
	c-29.484,29.883-45.721,65.742-48.709,107.578c-2.988,41.836,8.068,79.29,33.17,112.359l-26.297,25.699
	c-1.992-0.398-4.184-0.598-6.574-0.598c-20.32-2.393-38.449,4.582-54.387,20.918L67.694,559.482
	c-12.352,12.75-19.324,27.094-20.918,43.029c-1.594,15.938,2.789,28.986,13.148,39.146c10.359,10.16,23.508,14.543,39.445,13.146
	c15.937-1.395,30.082-8.268,42.434-20.619L249.979,526.01c13.945-13.943,20.918-29.684,20.918-47.215
	c0.797-4.781,0.797-9.762,0-14.94l25.102-25.103c32.672,25.103,70.125,36.357,112.359,33.769
	c42.232-2.59,78.293-18.825,108.176-48.71c32.672-33.068,49.008-72.812,49.008-119.23S549.206,218.619,516.534,185.947z
	 M481.87,388.852c-23.109,23.31-51.102,34.964-83.971,34.964c-32.872,0-60.962-11.654-84.271-34.964
	c-23.309-23.309-34.963-51.397-34.963-84.27s11.654-60.861,34.963-83.971c23.31-23.11,51.397-34.664,84.271-34.664
	c32.87,0,60.86,11.555,83.971,34.664c23.107,23.109,34.664,51.1,34.664,83.971S504.979,365.543,481.87,388.852z"/>
</svg>
