<?xml version="1.0" encoding="utf-8"?>
<!-- Generator: Adobe Illustrator 16.0.4, SVG Export Plug-In . SVG Version: 6.00 Build 0)  -->
<!DOCTYPE svg PUBLIC "-//W3C//DTD SVG 1.1//EN" "http://www.w3.org/Graphics/SVG/1.1/DTD/svg11.dtd">
<svg version="1.1" id="Capa_1" xmlns="http://www.w3.org/2000/svg" xmlns:xlink="http://www.w3.org/1999/xlink" x="0px" y="0px"
	 width="612px" height="792px" viewBox="0 0 612 792" enable-background="new 0 0 612 792" xml:space="preserve">
<path d="M551.637,150.363c-11.555-11.555-25.699-17.332-42.434-17.332H102.797c-16.734,0-30.879,5.777-42.434,17.332
	c-11.555,11.555-17.332,25.699-17.332,42.434v406.406c0,16.732,5.777,30.879,17.332,42.434
	c11.555,11.557,25.699,17.332,42.434,17.332h406.406c16.734,0,30.879-5.775,42.434-17.332
	c11.557-11.555,17.332-25.699,17.332-42.434V192.797C568.969,176.063,563.193,161.918,551.637,150.363z M337.078,602.193
	c-8.367,8.366-18.428,12.551-30.182,12.551c-11.754,0-21.814-4.186-30.184-12.551c-8.368-8.367-12.551-18.43-12.551-30.184
	s4.184-21.812,12.551-30.182c8.368-8.368,18.43-12.551,30.184-12.551c11.754,0,21.812,4.184,30.182,12.551
	s12.551,18.428,12.551,30.182S345.445,593.824,337.078,602.193z M423.139,339.222c-8.365,14.345-23.904,31.677-46.615,51.996
	c-14.346,12.75-23.707,22.113-28.092,28.089c-3.982,5.182-6.771,11.355-8.365,18.527c-1.992,7.172-3.188,19.523-3.586,37.055v0.6
	c-0.398,10.357-3.984,18.328-10.76,23.905c-5.977,5.181-13.146,7.37-21.516,6.573c-7.969-0.797-14.941-3.785-20.918-8.965
	c-5.977-5.977-8.965-13.146-8.965-21.516v-14.345c0-18.728,2.789-35.263,8.367-49.604c3.984-10.758,10.359-21.516,19.125-32.273
	c6.375-7.569,17.73-18.526,34.066-32.871c15.142-13.147,24.703-23.508,28.688-31.077c3.982-6.773,5.977-14.344,5.977-22.711
	c0-15.141-5.977-28.588-17.93-40.342c-11.953-11.754-26.896-17.631-44.824-17.631c-17.133,0-31.277,5.379-42.434,16.137
	c-11.555,10.758-19.324,28.09-23.309,51.996c-1.195,9.96-5.479,18.029-12.85,24.205c-7.371,6.176-15.639,8.865-24.803,8.068
	c-9.562-0.398-16.934-4.185-22.113-11.355c-5.578-7.969-7.172-17.93-4.781-29.883c4.781-36.656,18.328-64.746,40.641-84.27
	c22.713-19.92,52.397-29.881,89.053-29.881c38.646,0,69.727,10.559,93.232,31.676c23.51,21.516,35.264,47.613,35.264,78.293
	C435.691,307.547,431.506,324.082,423.139,339.222z"/>
</svg>
