<?xml version="1.0" encoding="utf-8"?>
<!-- Generator: Adobe Illustrator 16.0.4, SVG Export Plug-In . SVG Version: 6.00 Build 0)  -->
<!DOCTYPE svg PUBLIC "-//W3C//DTD SVG 1.1//EN" "http://www.w3.org/Graphics/SVG/1.1/DTD/svg11.dtd">
<svg version="1.1" id="Capa_1" xmlns="http://www.w3.org/2000/svg" xmlns:xlink="http://www.w3.org/1999/xlink" x="0px" y="0px"
	 width="612px" height="792px" viewBox="0 0 612 792" enable-background="new 0 0 612 792" xml:space="preserve">
<path d="M470.056,294.698c-34.065-40.043-76.799-64.447-128.196-73.213v-36.457h2.988c5.978,0,10.957-1.992,14.94-5.977
	c3.983-3.985,5.978-8.965,5.978-14.941s-1.992-10.957-5.978-14.941c-3.986-3.984-8.965-5.977-14.94-5.977h-77.696v-0.001
	c-5.977,0-10.957,1.992-14.941,5.977s-5.977,8.965-5.977,14.941s1.992,10.957,5.977,14.941c3.985,3.984,8.965,5.977,14.941,5.977
	h2.988v36.457c-51.398,8.766-94.131,33.17-128.197,73.213c-34.066,40.043-51.1,86.361-51.1,138.957
	c0,39.047,9.562,75.104,28.688,108.176c19.126,33.07,45.223,59.168,78.293,78.293c33.07,19.125,69.129,28.688,108.176,28.688
	s75.105-9.562,108.176-28.688c33.071-19.126,59.168-45.224,78.293-78.293c19.125-33.07,28.688-69.129,28.688-108.176
	C521.157,381.059,504.124,334.741,470.056,294.698z M427.025,554.975c-33.27,33.47-73.611,50.205-121.025,50.205
	s-87.756-16.732-121.025-50.203c-33.269-33.469-49.904-73.811-49.904-121.023c0-47.214,16.635-87.557,49.904-121.025
	S258.586,262.723,306,262.723s87.756,16.734,121.025,50.203c33.269,33.469,49.902,73.812,49.902,121.025
	S460.293,521.508,427.025,554.975z M370.547,361.336l34.664-4.184l-8.965,33.469l-78.293,67.535H306h-4.781h-2.391
	c-3.586,0-6.574-1.196-8.965-3.586c-2.391-2.391-3.586-5.18-3.586-8.367v-2.391v-4.781V311.133L306,282.445l19.723,28.688v89.648
	L370.547,361.336z"/>
</svg>
