<?xml version="1.0" encoding="utf-8"?>
<!-- Generator: Adobe Illustrator 16.0.4, SVG Export Plug-In . SVG Version: 6.00 Build 0)  -->
<!DOCTYPE svg PUBLIC "-//W3C//DTD SVG 1.1//EN" "http://www.w3.org/Graphics/SVG/1.1/DTD/svg11.dtd">
<svg version="1.1" id="Capa_1" xmlns="http://www.w3.org/2000/svg" xmlns:xlink="http://www.w3.org/1999/xlink" x="0px" y="0px"
	 width="612px" height="792px" viewBox="0 0 612 792" enable-background="new 0 0 612 792" xml:space="preserve">
<path d="M551.637,150.363c-11.555-11.555-25.699-17.332-42.434-17.332H102.797c-16.734,0-30.879,5.777-42.434,17.332
	c-11.555,11.555-17.332,25.699-17.332,42.434v406.406c0,16.732,5.777,30.879,17.332,42.434
	c11.555,11.557,25.699,17.332,42.434,17.332h406.406c16.734,0,30.879-5.775,42.434-17.332
	c11.557-11.555,17.332-25.699,17.332-42.434V192.797C568.969,176.063,563.193,161.918,551.637,150.363z M208.284,562.449
	c-9.363,9.363-20.619,14.045-33.768,14.045s-24.404-4.684-33.768-14.045c-9.364-9.363-14.045-20.619-14.045-33.77
	c0-13.147,4.682-24.402,14.045-33.768c9.363-9.364,20.619-14.045,33.768-14.045c13.148,0,24.404,4.682,33.768,14.045
	c9.364,9.363,14.045,20.619,14.045,33.768C222.329,541.829,217.647,553.084,208.284,562.449z M357.398,578.284l-77.1-4.186v-7.172
	c0-39.047-13.148-72.516-39.445-100.405c-26.297-27.891-58.57-42.832-96.82-44.823l3.587-77.694
	c38.648,1.992,74.01,13.148,106.084,33.469c32.074,20.321,57.475,47.214,76.201,80.685c18.726,33.469,28.09,69.727,28.09,108.771
	C357.996,570.913,357.797,574.7,357.398,578.284z M491.275,577.689l-77.1-2.393v-8.367c0-50.203-12.053-96.621-36.158-139.254
	c-24.104-42.633-56.877-76.6-98.312-101.899c-41.437-25.3-86.859-38.549-136.266-39.745l2.389-77.696
	c47.016,1.594,91.84,12.152,134.473,31.676c42.633,19.524,79.391,45.223,110.27,77.098c30.879,31.875,55.383,69.526,73.512,112.958
	c18.129,43.43,27.193,89.051,27.193,136.861V577.689z"/>
</svg>
