<?xml version="1.0" encoding="utf-8"?>
<!-- Generator: Adobe Illustrator 16.0.4, SVG Export Plug-In . SVG Version: 6.00 Build 0)  -->
<!DOCTYPE svg PUBLIC "-//W3C//DTD SVG 1.1//EN" "http://www.w3.org/Graphics/SVG/1.1/DTD/svg11.dtd">
<svg version="1.1" id="Capa_1" xmlns="http://www.w3.org/2000/svg" xmlns:xlink="http://www.w3.org/1999/xlink" x="0px" y="0px"
	 width="612px" height="792px" viewBox="0 0 612 792" enable-background="new 0 0 612 792" xml:space="preserve">
<path d="M560.902,270.846c-4.582,20.32-14.244,37.652-28.986,51.996c-13.945,13.946-30.182,23.408-48.709,28.39
	c-18.527,4.98-36.955,5.079-55.283,0.299C362.58,397.35,306.998,451.738,261.178,514.691c5.977,18.326,6.575,37.353,1.793,57.074
	c-4.782,19.725-14.344,36.758-28.688,51.102c-14.742,14.742-32.273,24.404-52.594,28.984c-20.321,4.582-39.645,3.688-57.973-2.688
	l61.559-61.559l-2.391-44.229l-23.309-23.309l-44.227-2.393l-61.559,61.561c-6.375-18.328-7.271-37.652-2.689-57.975
	c4.582-20.319,14.244-37.852,28.986-52.594c15.937-15.938,35.062-25.898,57.375-29.883c22.313-3.985,43.231-1.594,62.754,7.172
	c57.773-41.836,109.172-94.629,154.195-158.379c-8.367-19.523-10.459-40.142-6.275-61.857c4.186-21.715,14.045-40.541,29.584-56.479
	c14.742-14.743,32.273-24.405,52.596-28.987c20.319-4.582,39.645-3.885,57.973,2.092l-61.561,61.559l2.393,44.824l23.309,23.309
	l44.229,2.391l61.559-61.559C564.588,231.201,565.484,250.526,560.902,270.846z"/>
</svg>
